<svg xmlns="http://www.w3.org/2000/svg" viewBox="0 0 275 275" shape-rendering="geometricPrecision" xmlns:v="https://vecta.io/nano"><style>#B{animation:eiIzOrMqgkP8_tr__tr 3000ms linear infinite normal forwards}#C{animation:eiIzOrMqgkP26_tr__tr 3000ms linear infinite normal forwards}#D{animation:eiIzOrMqgkP27_tr__tr 3000ms linear infinite normal forwards}#E{animation:eiIzOrMqgkP60_tr__tr 3000ms linear infinite normal forwards}#F{animation:eiIzOrMqgkP61_ts__ts 3000ms linear infinite normal forwards}#G{animation:eiIzOrMqgkP78_tr__tr 3000ms linear infinite normal forwards}#H{animation:eiIzOrMqgkP97_c_o 3000ms linear infinite normal forwards}#I{animation:eiIzOrMqgkP100_c_o 3000ms linear infinite normal forwards}@keyframes eiIzOrMqgkP8_tr__tr{0%{transform:translate(117.36px,93.266437px) rotate(0deg)}16.666667%{transform:translate(117.36px,93.266437px) rotate(2deg)}33.333333%{transform:translate(117.36px,93.266437px) rotate(0deg)}50%{transform:translate(117.36px,93.266437px) rotate(2deg)}66.666667%{transform:translate(117.36px,93.266437px) rotate(0deg)}83.333333%{transform:translate(117.36px,93.266437px) rotate(2deg)}100%{transform:translate(117.36px,93.266437px) rotate(0deg)}} @keyframes eiIzOrMqgkP26_tr__tr{0%{transform:translate(103.14px,213.476233px) rotate(0deg)}12.333333%{transform:translate(103.14px,213.476233px) rotate(0deg);animation-timing-function:cubic-bezier(0,0,0.58,1)}21.333333%{transform:translate(103.14px,213.476233px) rotate(1deg);animation-timing-function:cubic-bezier(0.42,0,1,1)}90%{transform:translate(103.14px,213.476233px) rotate(1deg);animation-timing-function:cubic-bezier(0,0,0.58,1)}98%{transform:translate(103.14px,213.476233px) rotate(0deg)}100%{transform:translate(103.14px,213.476233px) rotate(0deg)}} @keyframes eiIzOrMqgkP27_tr__tr{0%{transform:translate(76.645442px,98.262599px) rotate(0deg)}14%{transform:translate(76.645442px,98.262599px) rotate(0deg);animation-timing-function:cubic-bezier(0,0,0.58,1)}22%{transform:translate(76.645442px,98.262599px) rotate(2deg);animation-timing-function:cubic-bezier(0.42,0,1,1)}89%{transform:translate(76.645442px,98.262599px) rotate(2deg);animation-timing-function:cubic-bezier(0,0,0.58,1)}96.666667%{transform:translate(76.645442px,98.262599px) rotate(0deg)}100%{transform:translate(76.645442px,98.262599px) rotate(0deg)}} @keyframes eiIzOrMqgkP60_tr__tr{0%{transform:translate(142.616825px,99.676865px) rotate(0deg)}14%{transform:translate(142.616825px,99.676865px) rotate(0deg);animation-timing-function:cubic-bezier(0,0,0.58,1)}22%{transform:translate(142.616825px,99.676865px) rotate(-2deg);animation-timing-function:cubic-bezier(0.42,0,1,1)}89%{transform:translate(142.616825px,99.676865px) rotate(-2deg);animation-timing-function:cubic-bezier(0,0,0.58,1)}96.666667%{transform:translate(142.616825px,99.676865px) rotate(0deg)}100%{transform:translate(142.616825px,99.676865px) rotate(0deg)}} @keyframes eiIzOrMqgkP61_ts__ts{0%{transform:translate(132.516579px,186.349998px) scale(1,1)}14%{transform:translate(132.516579px,186.349998px) scale(1,1);animation-timing-function:cubic-bezier(0,0,0.58,1)}22%{transform:translate(132.516579px,186.349998px) scale(0.85,0.85);animation-timing-function:cubic-bezier(0.42,0,1,1)}89%{transform:translate(132.516579px,186.349998px) scale(0.85,0.85);animation-timing-function:cubic-bezier(0,0,0.58,1)}96.666667%{transform:translate(132.516579px,186.349998px) scale(1,1)}100%{transform:translate(132.516579px,186.349998px) scale(1,1)}} @keyframes eiIzOrMqgkP78_tr__tr{0%{transform:translate(110.891915px,75.720123px) rotate(0deg)}10%{transform:translate(110.891915px,75.720123px) rotate(0deg);animation-timing-function:cubic-bezier(0,0,0.58,1)}14.333333%{transform:translate(110.891915px,75.720123px) rotate(-3deg)}21.666667%{transform:translate(110.891915px,75.720123px) rotate(4deg);animation-timing-function:cubic-bezier(0.42,0,1,1)}90.666667%{transform:translate(110.891915px,75.720123px) rotate(4deg);animation-timing-function:cubic-bezier(0,0,0.58,1)}96.666667%{transform:translate(110.891915px,75.720123px) rotate(0deg)}100%{transform:translate(110.891915px,75.720123px) rotate(0deg)}} @keyframes eiIzOrMqgkP97_c_o{0%{opacity:1}20%{opacity:1}23.333333%{opacity:0}26.666667%{opacity:1}43.333333%{opacity:1}46.666667%{opacity:0}50%{opacity:1}80%{opacity:1}83.333333%{opacity:0}86.666667%{opacity:1}100%{opacity:1}} @keyframes eiIzOrMqgkP100_c_o{0%{opacity:0}20%{opacity:0}23.333333%{opacity:1}26.666667%{opacity:0}43.333333%{opacity:0}46.666667%{opacity:1}50%{opacity:0}80%{opacity:0}83.333333%{opacity:1}86.666667%{opacity:0}100%{opacity:0}} @keyframes eiIzOrMqgkP8_tr__tr{0%{transform:translate(117.36px,93.266437px) rotate(0deg)}16.666667%{transform:translate(117.36px,93.266437px) rotate(2deg)}33.333333%{transform:translate(117.36px,93.266437px) rotate(0deg)}50%{transform:translate(117.36px,93.266437px) rotate(2deg)}66.666667%{transform:translate(117.36px,93.266437px) rotate(0deg)}83.333333%{transform:translate(117.36px,93.266437px) rotate(2deg)}100%{transform:translate(117.36px,93.266437px) rotate(0deg)}} @keyframes eiIzOrMqgkP26_tr__tr{0%{transform:translate(103.14px,213.476233px) rotate(0deg)}12.333333%{transform:translate(103.14px,213.476233px) rotate(0deg);animation-timing-function:cubic-bezier(0,0,0.58,1)}21.333333%{transform:translate(103.14px,213.476233px) rotate(1deg);animation-timing-function:cubic-bezier(0.42,0,1,1)}90%{transform:translate(103.14px,213.476233px) rotate(1deg);animation-timing-function:cubic-bezier(0,0,0.58,1)}98%{transform:translate(103.14px,213.476233px) rotate(0deg)}100%{transform:translate(103.14px,213.476233px) rotate(0deg)}} @keyframes eiIzOrMqgkP27_tr__tr{0%{transform:translate(76.645442px,98.262599px) rotate(0deg)}14%{transform:translate(76.645442px,98.262599px) rotate(0deg);animation-timing-function:cubic-bezier(0,0,0.58,1)}22%{transform:translate(76.645442px,98.262599px) rotate(2deg);animation-timing-function:cubic-bezier(0.42,0,1,1)}89%{transform:translate(76.645442px,98.262599px) rotate(2deg);animation-timing-function:cubic-bezier(0,0,0.58,1)}96.666667%{transform:translate(76.645442px,98.262599px) rotate(0deg)}100%{transform:translate(76.645442px,98.262599px) rotate(0deg)}} @keyframes eiIzOrMqgkP60_tr__tr{0%{transform:translate(142.616825px,99.676865px) rotate(0deg)}14%{transform:translate(142.616825px,99.676865px) rotate(0deg);animation-timing-function:cubic-bezier(0,0,0.58,1)}22%{transform:translate(142.616825px,99.676865px) rotate(-2deg);animation-timing-function:cubic-bezier(0.42,0,1,1)}89%{transform:translate(142.616825px,99.676865px) rotate(-2deg);animation-timing-function:cubic-bezier(0,0,0.58,1)}96.666667%{transform:translate(142.616825px,99.676865px) rotate(0deg)}100%{transform:translate(142.616825px,99.676865px) rotate(0deg)}} @keyframes eiIzOrMqgkP61_ts__ts{0%{transform:translate(132.516579px,186.349998px) scale(1,1)}14%{transform:translate(132.516579px,186.349998px) scale(1,1);animation-timing-function:cubic-bezier(0,0,0.58,1)}22%{transform:translate(132.516579px,186.349998px) scale(0.85,0.85);animation-timing-function:cubic-bezier(0.42,0,1,1)}89%{transform:translate(132.516579px,186.349998px) scale(0.85,0.85);animation-timing-function:cubic-bezier(0,0,0.58,1)}96.666667%{transform:translate(132.516579px,186.349998px) scale(1,1)}100%{transform:translate(132.516579px,186.349998px) scale(1,1)}} @keyframes eiIzOrMqgkP78_tr__tr{0%{transform:translate(110.891915px,75.720123px) rotate(0deg)}10%{transform:translate(110.891915px,75.720123px) rotate(0deg);animation-timing-function:cubic-bezier(0,0,0.58,1)}14.333333%{transform:translate(110.891915px,75.720123px) rotate(-3deg)}21.666667%{transform:translate(110.891915px,75.720123px) rotate(4deg);animation-timing-function:cubic-bezier(0.42,0,1,1)}90.666667%{transform:translate(110.891915px,75.720123px) rotate(4deg);animation-timing-function:cubic-bezier(0,0,0.58,1)}96.666667%{transform:translate(110.891915px,75.720123px) rotate(0deg)}100%{transform:translate(110.891915px,75.720123px) rotate(0deg)}} @keyframes eiIzOrMqgkP97_c_o{0%{opacity:1}20%{opacity:1}23.333333%{opacity:0}26.666667%{opacity:1}43.333333%{opacity:1}46.666667%{opacity:0}50%{opacity:1}80%{opacity:1}83.333333%{opacity:0}86.666667%{opacity:1}100%{opacity:1}} @keyframes eiIzOrMqgkP100_c_o{0%{opacity:0}20%{opacity:0}23.333333%{opacity:1}26.666667%{opacity:0}43.333333%{opacity:0}46.666667%{opacity:1}50%{opacity:0}80%{opacity:0}83.333333%{opacity:1}86.666667%{opacity:0}100%{opacity:0}}</style><defs><clipPath id="A"><path d="M29.75 210.2c-.33-6.08.1-12.94.33-19.78.27-8.16.45-16.33 1.16-24.48.41-4.78.6-9.59.93-14.39l1.6-22.66.95-16c.81-9.94 1.45-19.91 2.92-29.79.28-1.88 1.49-90.45 1.49-90.45h202l2.06 122.45c.65 6.74.83 13.49 1.13 20.24.28 6.21.12 12.43.26 18.64l.65 17.28c.34 7.89.56 15.78.44 23.68l-.09 25.73a208.64 208.64 0 0 1-1.9 28.37 20.38 20.38 0 0 1-5.77 11.45 34 34 0 0 1-25.09 11c-6.62.06-13.22-.5-19.84-.76-6.3-.24-12.56-1-18.84-1.52-4.61-.39-9.2-1-13.81-1.41l-19.93-1.75-14.76-1.52-11.9-1.25-24.81-3.32c-11.43-1.5-22.72-3.78-34.08-5.71a72.65 72.65 0 0 1-11.55-2.47c-6.18-2.12-10.61-5.89-12.26-12.51A34.06 34.06 0 0 1 30 231c0-6.69-.66-13.35-.25-20.8z" stroke="none" stroke-width="1"/></clipPath></defs><path d="M29.75 210.2c-.33-6.08.1-12.94.33-19.78.27-8.16.45-16.33 1.16-24.48.41-4.78.6-9.59.93-14.39l1.6-22.66.95-16c.81-9.94 1.45-19.91 2.92-29.79a28.75 28.75 0 0 1 1.44-5.52 15.86 15.86 0 0 1 8.84-9.45c5-2.24 10.31-3.42 15.61-4.6 5.8-1.3 11.61-2.54 17.5-3.36l29.89-4.26c9.42-1.07 18.9-1.52 28.32-2.55 10.33-1.14 20.71-1.56 31-2.79 5.85-.69 11.76-.8 17.64-1.25a147 147 0 0 1 17.56-.16c4.67.2 9.32.68 13.67 2.67 7 3.21 11.77 8.56 15 15.48 2.89 6.16 4.25 12.71 5.49 19.31 1.76 9.42 2.59 19 3.51 28.48.65 6.74.83 13.49 1.13 20.24.28 6.21.12 12.43.26 18.64l.65 17.28c.34 7.89.56 15.78.44 23.68l-.09 25.73a208.64 208.64 0 0 1-1.9 28.37 20.38 20.38 0 0 1-5.77 11.45 34 34 0 0 1-25.09 11c-6.62.06-13.22-.5-19.84-.76-6.3-.24-12.56-1-18.84-1.52-4.61-.39-9.2-1-13.81-1.41l-19.93-1.75-14.76-1.52-11.9-1.25-24.81-3.32c-11.43-1.5-22.72-3.78-34.08-5.71a72.65 72.65 0 0 1-11.55-2.47c-6.18-2.12-10.61-5.89-12.26-12.51A34.06 34.06 0 0 1 30 231c0-6.69-.66-13.35-.25-20.8z" fill="#1aabe3"/><g clip-path="url(#A)"><g id="B" transform="matrix(1 0 0 1 117.36 93.266437)"><g transform="translate(-117.36 -93.266)"><path d="M103.59 241v-6.68l-.24-6.08.47-9.16c0-2.09-.48-4.17-.59-6.27l-.14-7.46v-9.16-1.36-10.63l.23-7.71s-.51-4.84-.48-7.26q.12-9.07.54-18.15c.22-4.48.73-8.94 1.06-13.41l.56-9.16a48.67 48.67 0 0 1 2.49-13.09 15.36 15.36 0 0 1 7.35-8.15 53.33 53.33 0 0 1 18-6c3.17-.51 6.31-1.29 9.49-1.54a80.79 80.79 0 0 1 8.93.17 28.39 28.39 0 0 1 4.71.31 27 27 0 0 1 5.16 1.65c3.19 1.35 6.36 2.76 9.44 4.35a14.15 14.15 0 0 1 4.35 3.23c2.31 2.79 1.65 5.78 0 8.71a118.26 118.26 0 0 0-5.92 10.71 37.94 37.94 0 0 0-2.45 8.66 103.66 103.66 0 0 0-1.15 10.4c-.26 3.3 1.25 6.1 3.08 8.65 2.48 3.43 5.86 5.89 9.33 8.25 4.83 3.29 9.85 6.34 13.93 10.65a17.66 17.66 0 0 1 4.18 7.64c1.66 6 3.28 12 5.22 17.9a16.42 16.42 0 0 0 7.93 9.1c4.24 2.41 8.93 3.1 13.59 4.1a110.06 110.06 0 0 1 11.34 3.21 45.38 45.38 0 0 1 7.39 3 39.22 39.22 0 0 1 5.55 3.92 49.79 49.79 0 0 1 9.79 10.71 41.59 41.59 0 0 1 4.86 9.18c1.93 5 3.43 10.16 5 15.29a17.16 17.16 0 0 1 1.22 5.54c-.14 3.27-1.44 6.08-4.67 7.68a51.79 51.79 0 0 1-16.29 4.83c-4.61.61-9.22 1.2-13.84 1.62s-9 .6-13.47.83l-12.84.56-6.76.26-27.46.26c-6.8 0-13.59-.21-20.38-.23-3.71 0-7.42.13-11.12.27l-10.53.51c-2.5.08-5 .11-7.52 0a29 29 0 0 1-9.73-2.14c-2.58-1.06-3.48-3.27-4.12-5.7-.79-3-1.49-5.94-2.42-8.84a52.8 52.8 0 0 1-2.52-12.68l-.78-11.32z" fill="#fff"/><path d="M168.48 280.91l-34 .84-11.17.09a27.57 27.57 0 0 1-9.45-1.77 7.28 7.28 0 0 1-4.75-5.35c-1.15-4.28-2.5-8.52-3.53-12.83a89.65 89.65 0 0 1-1.68-9.76 78.87 78.87 0 0 1-.56-8.68v-19.88a69 69 0 0 0-.5-11.94 23.59 23.59 0 0 1-.08-3.26l.07-16.88.12-9.53c0-3.77-.35-7.53-.25-11.29.27-10.94.27-21.88 1.53-32.78.51-4.46.49-9 1-13.43a50 50 0 0 1 1.88-8.62 13.73 13.73 0 0 1 6.36-8 47.44 47.44 0 0 1 14.53-5.78c6.39-1.39 12.78-2.79 19.37-2.6 2.95.08 5.91.21 8.84.54a16 16 0 0 1 4.26 1.3c2.26.92 4.49 1.94 6.69 3a61.57 61.57 0 0 1 6 3.22 6.93 6.93 0 0 1 2.51 9.49c-1.14 2.16-2.53 4.19-3.73 6.33a43.7 43.7 0 0 0-5.64 17.87c-.15 1.76-.47 3.51-.62 5.27-.41 4.67 1.44 8.56 4.6 11.78a54.7 54.7 0 0 0 6.43 5.42c3.91 2.94 7.92 5.76 11.91 8.59 4.88 3.47 7.23 8.37 8.54 14.07 1.07 4.67 2.51 9.27 4 13.83 2.31 7.06 7.75 10.66 14.59 12.29 7.23 1.72 14.52 3.17 21.53 5.75 5.49 2 9.74 5.67 13.77 9.73a50.16 50.16 0 0 1 12.69 21.28c1.21 4 2.55 8 3.84 12a10.21 10.21 0 0 1-2.16 10.28 6 6 0 0 1-1.88 1.31c-5.86 3-12.15 4.4-18.61 5.34a286.73 286.73 0 0 1-33.51 2.5l-28.59.74c-4.76.1-9.53 0-14.3 0zm-2.68-155.22l6-10.35c1.06-1.85.71-3.31-1.1-4.4s-3.82-2.09-5.77-3-4.1-1.94-6.2-2.78a14.64 14.64 0 0 0-3.76-1.06 69.71 69.71 0 0 0-23 1.33c-5.66 1.24-11.16 2.8-16.16 5.85a10.76 10.76 0 0 0-4.92 6.27 30.41 30.41 0 0 0-1.33 5.68c-.72 7.27-1.5 14.54-1.87 21.83-.51 10.19-1.12 20.39-.64 30.62.28 5.93 0 11.89 0 17.83l-.15 15.39a15.69 15.69 0 0 0 .1 2.1 75.57 75.57 0 0 1 .5 13c-.24 7.53-.3 15.08.06 22.6a92.15 92.15 0 0 0 2.11 14.4c.89 4.29 2.31 8.47 3.46 12.71a2.87 2.87 0 0 0 2 2.33 35.31 35.31 0 0 0 7 1.51c5 .18 10.08 0 15.11-.11l20.55-.5 27.65.3c8.44-.05 16.88-.44 25.32-.7a298.22 298.22 0 0 0 33.38-2.47 58.18 58.18 0 0 0 17.22-4.8 5.35 5.35 0 0 0 2.57-5.52l-4.13-13.23a46.28 46.28 0 0 0-11.68-19.69c-3.6-3.63-7.33-7-12.27-8.81a159.34 159.34 0 0 0-20.34-5.46c-9.31-2.09-16.06-7.16-18.81-16.67l-4.31-15.45a14.42 14.42 0 0 0-5.39-8.27l-12.94-9.48a55.43 55.43 0 0 1-7.24-6.35A19 19 0 0 1 162 143.1c.17-.89.28-1.8.36-2.7a46 46 0 0 1 .45-5.77c1.09-5-.58-9.41-3.18-13.49-2.42-3.82-5.11-7.47-7.67-11.2a6.27 6.27 0 0 1-.83-1.55c-.18-.54-.41-1.28-.18-1.68a2.58 2.58 0 0 1 1.61-1.25c.66-.08 1.45.35.92 1.41-.08.16.24.54.42.78l8.93 11.82a24.57 24.57 0 0 1 2.06 3.82c.4.76.62 1.59.91 2.4z"/></g></g><path d="M65.46 205.62c9.92 6 20 10.2 31.05 10.79 8 .43 16.09 1.48 24.12-.31 7.14-1.59 14.25-3.32 20.89-6.42 3.06-1.43 5.83-3.49 9-5.46l1.75 7.32a21.22 21.22 0 0 1 .29 3.48c.15 3-.17 5.9.64 9 1 3.62.56 7.59.73 11.42a5 5 0 0 1-.06 2.29c-1.46 2.87-.07 5.48.63 8.1l5.2 18.32a24.46 24.46 0 0 1 .74 3.24 2.4 2.4 0 0 1-1.84 2.67 73.26 73.26 0 0 1-7.75 1.82 23 23 0 0 1-5 .28l-15.64-.81c-3.75-.26-7.49-.67-11.23-1.08l-11.18-1.33-8.28-.86a46.91 46.91 0 0 1-4.85-.87c-2.37-.56-4.7-1.29-7.08-1.81l-12.4-2.51c-3.42-.75-6.8-1.66-10.2-2.47a5.55 5.55 0 0 1-3.68-3.13 4.57 4.57 0 0 1 0-2.69c.68-3.45 1.35-6.9 2.22-10.29.7-2.74 1.7-5.41 2.52-8.12a1.67 1.67 0 0 0 0-1.29c-1.53-1.92-.94-4-.49-6a30.39 30.39 0 0 1 1.28-4.2 1.58 1.58 0 0 0-.45-2 5.6 5.6 0 0 1-2.09-5.14l1.16-11.94z" fill="#fff"/><path d="M101.78 232.09l13.48-.74v-2.07l.29-11.44a4.12 4.12 0 0 1 .46-2 1.75 1.75 0 0 1 1.38-.77c.43.08.9.7 1.07 1.19a4.87 4.87 0 0 1 0 1.61l-.44 12.68 3.43-.69v-7.92l.08-5.85a1.66 1.66 0 0 1 .2-1c.45-.49 1.08-1.2 1.56-1.15s1 .89 1.23 1.48a4.37 4.37 0 0 1 0 1.62v12.08c2-.64 3.77-1 5.42-1.75l14.56-6.41c.5-.22 1-.54 1.45-.77a4.89 4.89 0 0 0 3.08-5.71l-1.12-6.56a2.32 2.32 0 0 0-1.25-1.33c-1-.45-1.81-1-1.56-2.21s1.18-1.51 2.3-1.44a3.89 3.89 0 0 1 3.91 3.3c1 3.92 2.17 7.92 1.4 11.93-.4 2 .35 3.54.77 5.25 1.06 4.3.89 8.65.62 13-.06 1.11-.48 2.18-.65 3.29a3.31 3.31 0 0 0 .15 1.46l4 13.58 2.87 11.34a3.45 3.45 0 0 1 .1 1.87c-.25.63-.81 1.45-1.37 1.58a2.84 2.84 0 0 1-1.95-.79 2.94 2.94 0 0 1-.65-1.46q-2.83-10.16-5.63-20.32c-.45-1.66-.73-3.36-1.09-5-8.7 1.5-17.13 3.58-24.79 8.19-5.79 3.49-11.73 6.76-18.39 8.39a1.5 1.5 0 0 0-.84 1.07c-.28 1.82-.43 3.65-.65 5.48-.1.79-.46 1.41-1.39 1.35s-1.74-.3-1.73-1.48v-5.59h-4c-.16 1.33-.22 2.64-.5 3.89a7.79 7.79 0 0 1-1.09 2.36c-.19.29-.91.55-1.13.41a1.74 1.74 0 0 1-.72-1.21c-.11-1.62-.1-3.25-.13-4.88v-1c-3.74-.59-6.46-2.83-8.83-5.52-3.15-3.56-6-7.39-9.34-10.78-2-2-4.61-3.42-7.22-5.29-.84 3.37-1.66 6.24-2.27 9.16-.76 3.68-1.34 7.4-2 11.09-.11.58-.37 1.39-.78 1.56s-1.1-.31-1.63-.59c-1.28-.66-1.45-1.74-1.25-3.08a97.23 97.23 0 0 1 4.67-19.12 2.3 2.3 0 0 0-.12-1.85 7.71 7.71 0 0 1-.62-3.63c.32-2.14 1.08-4.21 1.58-6.32.12-.5.14-1.34-.15-1.57-2.45-2-2.66-4.63-2.36-7.43s.64-5.68 1.1-8.5c.32-1.93 1.51-2.83 3.08-2.46a2 2 0 0 1 1.33 1c.13.38-.36 1-.59 1.48a5 5 0 0 0-.65 1.39q-.37 4.75-.6 9.51a1.84 1.84 0 0 0 .43 1.35c1.67 1.43 3.42 2.77 5.14 4.14l.45-.2v-4.43l.31-7.08a3 3 0 0 1 .28-1.3c.21-.35.69-.8 1-.75a1.68 1.68 0 0 1 1 .87 2.79 2.79 0 0 1 .07 1.33c-.23 3.67-.38 7.35-.77 11-.17 1.62.61 2 1.9 2.4l.86-9.8a15 15 0 0 1 .28-1.88c.2-.9.61-1.75 1.69-1.58s1.27 1 1.18 2l-.8 8.13-.17 1.9c-.27 2.61-.28 2.63 2.26 3.53 1.91.68 3.84 1.27 5.84 1.93a26.09 26.09 0 0 1-2-3.54c-1.12-2.88.05-6 2.6-7.95s10.17-2.8 13.6-.43c5.6 3.87 5.41 10.5-.61 13.65l-.59.31zm47.33-9.43l-1.42.75a111.3 111.3 0 0 1-21.46 9.18 72.88 72.88 0 0 1-22.15 3.18c-11.22-.33-21.69-3.5-31.63-8.56-1-.51-1.93-1.11-3-1.76l-.63 4.15a4.37 4.37 0 0 0 2.77 5.15A28.86 28.86 0 0 1 82 242.88c2.18 2.73 4.38 5.43 6.7 8 1.54 1.72 3.23 3.43 5.61 3.9a25.66 25.66 0 0 0 10.93 0c6.45-1.5 12.09-4.87 17.77-8.09a56.81 56.81 0 0 1 15.26-6.38l10.33-2.35a1.88 1.88 0 0 0 1.65-2.11c-.06-2.86 0-5.73-.17-8.58a35 35 0 0 0-.97-4.61zm-51.66 5.94a16.93 16.93 0 0 0 3-.84c3.15-1.4 3.48-4.5.68-6.51a21.38 21.38 0 0 0-3.43-1.56c-2.43-1.15-4.54-.3-6.42 1.17s-1.92 3.73-.21 5.46 3.67 2.11 6.38 2.28zm0-1.32a37 37 0 0 1-5-1.89 2.91 2.91 0 0 1-1.29-2.25c0-.65 1-1.46 1.72-1.81a7.29 7.29 0 0 1 5.69-.06c1.93.69 3 2.11 2.65 3.59S99.7 227 97.56 227zm-4.39-4.09c1.35 1.41 4.29 2 5.77 1.21-.94-1.64-3.62-2.2-5.77-1.21z"/><path d="M88.81 232.55c1.2-1.65 2.07-2.07 3.84-1.38 5.42 2.12 11.24 2.42 16.81 3.84a1.24 1.24 0 0 0 .9 0c1.82-1.63 4.13-1.1 6.23-1.45a15.78 15.78 0 0 1 2.18-.07 8.82 8.82 0 0 0 4.86-1.27 9.55 9.55 0 0 1 4.72-1.52c3.31-.11 6-1.89 9-2.87a46.57 46.57 0 0 0 5.85-2.54 24.56 24.56 0 0 0 3.4-2.14 3.88 3.88 0 0 1 3.76-.33c1.2.43 1 1.56 1 2.66a11.2 11.2 0 0 0 .72 3.16 14.16 14.16 0 0 1 .36 7.25 2.42 2.42 0 0 1-1.81 2 4.9 4.9 0 0 0-1.28.71 7.77 7.77 0 0 1-6.79 1.52 2.22 2.22 0 0 0-1.29.15l-12.81 4.93c-2.64 1.06-5.22 2.27-7.81 3.45a1.32 1.32 0 0 0-.59.68 5.78 5.78 0 0 1-3.46 3.29c-2.63 1-5.33 1.74-8 2.46-1.9.5-3.87.75-5.81 1.13a1.14 1.14 0 0 0-.46.27c-1.95 1.93-4.16 1.68-6.44.78a28.61 28.61 0 0 1-9.12-6.32 26.1 26.1 0 0 1-5.43-7.23c-.94-1.87-2.9-3.39-4.7-4.61-3.26-2.2-6.46-4.41-8.7-7.71a9.72 9.72 0 0 1-1.42-2.89c-.46-1.77.78-2.87 2.5-3.28 2.84-.68 4.79 1.29 7.16 2a30.31 30.31 0 0 1 3.3 1.6l9.33 3.73zm54.73 10.02a8.45 8.45 0 0 1 1.89.2c.45.15.79.64 1.18 1-.39.32-.72.79-1.17.93-.76.24-1.62.19-2.4.39l-10.33 2.77c-.58.15-1.61.21-1.77-.07-.53-.89.32-1.48 1-1.74l8.54-3a20.6 20.6 0 0 1 3.06-.48zm1.08-28.03l.24-4.19c.06-.42.57-.79.88-1.17.4.35 1.12.67 1.16 1l.48 8.5c0 .39-.89 1.19-1.17 1.12-.57-.16-1.36-.75-1.43-1.25a27.45 27.45 0 0 1-.07-4.06zm-9.33 35.7c-.34-.17-1-.36-.95-.47.07-.49.19-1.19.53-1.37a10.64 10.64 0 0 1 2.8-1l6.43-1.07a.3.3 0 0 1 .13 0l2.14.76c-.56.43-1.07 1.11-1.69 1.25l-9.39 1.9zm6.15-34.42a17.92 17.92 0 0 1 0-2.84c.08-.46.61-.86.94-1.28.33.37.92.7 1 1.11l.47 6.32c0 .36-.78 1.08-1.08 1a1.85 1.85 0 0 1-1.26-1.1 19.31 19.31 0 0 1-.05-3.23zm4.37 35.18a6.42 6.42 0 0 1-1.55 1l-5.56 1.06a1.18 1.18 0 0 1-1-.44 1.23 1.23 0 0 1 .31-1c1.35-1.39 5.86-1.82 7.8-.62zm-5.47-32.92a3.83 3.83 0 0 1 0 1.21 4.59 4.59 0 0 1-.72 1.13c-.4-.29-1.13-.56-1.15-.87-.12-1.8-.1-3.61 0-5.42 0-.24.57-.7.67-.65.35.18.83.5.89.82.2 1.25.26 2.52.38 3.78zm.44 37.72c.84-1.49 3.76-2.13 6.05-1.33-.83 1.28-4.43 2.08-6.05 1.33zm-4.27-36.21l-.67.84c-.31-.32-.81-.61-.89-1a9.58 9.58 0 0 1-.23-2.56c0-.37.42-.72.64-1.07.3.33.77.62.87 1a20.22 20.22 0 0 1 .28 2.79z"/><g id="C" transform="matrix(1 0 0 1 103.14 213.476233)"><g transform="translate(-103.14 -213.476)"><g id="D" transform="matrix(1 0 0 1 76.645442 98.262599)"><g transform="translate(-76.645 -98.263)"><path d="M82.86 108.59c.74 8.44-1 16.62-2.56 24.82-3 15.05-6.1 30.06-7.69 45.34-.25 2.42-.77 4.82-1.1 7.24-.05.35.24.76.39 1.14a6 6 0 0 1 .62 1.57c0 .25-.53.7-.89.8a15.44 15.44 0 0 1-2.45.39 3.58 3.58 0 0 1-1.68.06 19.32 19.32 0 0 1-2.91-1.63c-1.43-.95-1.78-2.37-1.8-4a15 15 0 0 0-.54-5.21 83.93 83.93 0 0 0-4.25-8.48l-5.5-9.86a14 14 0 0 1-1.57-8.56c.36-3.66.67-7.33 1.3-11a24.6 24.6 0 0 1 1.93-4.89 63.66 63.66 0 0 0 2.55-6.26c3.25-11.07 6.77-22 13-31.89a12.3 12.3 0 0 1 5.55-4.61c1.87-.86 4.88.24 6 2.38a17.1 17.1 0 0 1 1.65 5.39 61.9 61.9 0 0 1-.05 7.26z" fill="#fff"/><g><path d="M59.39 171.15a10.44 10.44 0 0 1 6.61-5.94c1.27-.45 2.55-.53 3.52.58a1.88 1.88 0 0 1 .44 1.54 1.73 1.73 0 0 1-1.39.75 7.06 7.06 0 0 0-6.26 3.41l-.43.69c-1.29 2.06-1.29 2.06-.24 4.61l.79-1a7.24 7.24 0 0 1 4.74-2.94c1.26-.2 2.41.36 2.52 1.3.14 1.24-.78 1.67-1.76 1.85a6.12 6.12 0 0 0-4.14 3.26 3.34 3.34 0 0 0-.18 1.69 43.82 43.82 0 0 0 .26 4.73 2.39 2.39 0 0 0 1 1.68c1.59.61 3.27.95 4.94 1.41l1-3.45.45.06.72 6.11c0 .26-.3.62-.56.8a1.36 1.36 0 0 1-.9.26c-3.18-.28-6.31-.76-8.83-3a4.5 4.5 0 0 1-1.39-3.83l.13-4.62a2.74 2.74 0 0 0-.4-1.24l-8.7-15.36c-2.41-4.29-2.76-9-2.5-13.75.19-3.57.64-7.14 1-10.71a4.48 4.48 0 0 1 1.71-3.41 2.46 2.46 0 0 0 .63-1.28A168.22 168.22 0 0 1 62 107.06 99.26 99.26 0 0 1 68.35 96c2.38-3.76 6.09-5.41 10.41-5.86h.27c1.14 0 2.24.25 2.71 1.4.33.81-.75 1.81-2.2 2.18a35.58 35.58 0 0 1-1.72.4c-4 .81-6.16 3.61-8.16 6.85a99.38 99.38 0 0 0-9.15 20.15l-4.41 13c-.6 1.7-1.46 3.31-2.17 5a5 5 0 0 0-.44 1.55l-.91 13.3c-.28 3.78 1 7.17 2.71 10.39 1.21 2.22 2.64 4.38 4.1 6.79z"/><path d="M57.53 141.13c3.45-.53 5.87 1.37 8.49 3.14l-1.71-4.91.25-.28A6.51 6.51 0 0 1 66 140c2.71 3.14 4.48 6.71 4.38 11a12.82 12.82 0 0 1-.67 3.51c-.14.45-.84 1.07-1.2 1a2.46 2.46 0 0 1-1.65-1.06 14.63 14.63 0 0 1-1.22-3.59c-.74-3.42-3-5.73-5.56-7.81l-2.55-1.92z"/><path d="M69 186.69a33.87 33.87 0 0 1-3.25-3.08c-.41-.49.08-1.09.86-1.12a5.29 5.29 0 0 1 3.67 2.33c.37.89-.07 1.58-1.28 1.87z"/></g><g><path d="M64.12 154.54c.28.17.79.31.95.63s-.21.79-.49 1q-1.89 1.31-3.89 2.45a1.1 1.1 0 0 1-1.06-.14 1.2 1.2 0 0 1 0-1.09 7 7 0 0 1 4.49-2.85z"/><path d="M65.88 158.53l-4.08 2.67c-.34.19-1-.21-1.53-.33.25-.43.4-1 .77-1.26 1.39-.86 2.77-1.88 4.56-1.58z"/><path d="M66.86 174.14c-1.83-.87-3.53-5.16-2.66-6.62z"/><path d="M60.23 171.83l2.77 6.83c-1.47-.23-3.22-4.56-2.77-6.83z"/><path d="M65 175.26c-1.5-.8-3-5.24-2.31-6.54z"/><path d="M61.44 171.26l1.17 2.62 1 2.5a2.11 2.11 0 0 1-.06.78c-.23-.07-.62-.1-.67-.24l-1.79-5.38c-.03-.03.11-.1.35-.28z"/><path d="M65.75 161.14A2.49 2.49 0 0 1 63.3 163c-.25 0-.71-.19-.76-.38s0-.83.23-.93c.88-.43 1.82-.74 2.74-1.09z"/><path d="M63.27 153.47l-2.91 1.92a.62.62 0 0 1-.56-.16 1.16 1.16 0 0 1 0-.78A3.23 3.23 0 0 1 63 153z"/></g></g></g><g><path d="M107.17 217.94h-6.27a68.31 68.31 0 0 1-18.2-2.85 86.36 86.36 0 0 1-10.56-4c-4.41-2-4.12-2.55-3.25-7a38.59 38.59 0 0 0 .88-10.44 68.72 68.72 0 0 0-2-11.43c-1.09-4.27-2.15-8.62-1.78-13.11.26-3.12.7-6.22 1-9.33.08-.77 0-1.55.06-2.31l.9-7.73c.28-2.07.68-4.12 1-6.2a1.89 1.89 0 0 0-.27-1.12 16 16 0 0 1-1.92-11.12l2.17-13.46c.5-3.59.65-7.22 1.17-10.81a36.41 36.41 0 0 1 1.61-6 28.64 28.64 0 0 1 4-8.22c2-2.62 4.6-4 7.45-5.25 1.13-.49 2.38-.71 3.52-1.18a2.07 2.07 0 0 0 1-1.11A8.44 8.44 0 0 1 95 80.08a22 22 0 0 0 7.43-1.14c6.8-2.23 13.69-4.18 20.6-6.06a38.83 38.83 0 0 1 7.81-1.21c2.84-.17 5.39.69 7 3.3a2.11 2.11 0 0 0 .77.77c2.86 1.42 3.62 4.08 4.19 6.9a1.57 1.57 0 0 0 .82 1c3 1.23 4.52 3.86 6.12 6.37 1.21 1.91 2.14 4 3.3 5.94a13.07 13.07 0 0 0 2.37 3.05c1.58 1.4 2 3.37 2.78 5.13a33.22 33.22 0 0 1 2.45 6.6c.72 3.39 1.58 6.91 1.35 10.3-.26 3.7-1.68 7.33-2.64 11l-3.14 11.56c-.5 2.08-.45 4.28-.91 6.36a32.77 32.77 0 0 1-1.79 5.42c-1.83 4.44-4 8.75-5.55 13.28a69.78 69.78 0 0 0-2.14 10.71 27.74 27.74 0 0 0-.52 6c.2 3.33.74 6.65 1.16 10l.94 7.44a11.57 11.57 0 0 1-.09 3.67c-.42 1.75-2.06 2.53-3.47 3.35a64.1 64.1 0 0 1-15.32 6.05 46 46 0 0 1-11.46 1.86c-3.3.05-6.59 0-9.89 0z" fill="#fff"/><g><path d="M71.58 146.17l-1.29 17.56-.55 5.42c-.35 4.33.68 8.5 1.76 12.62a47.66 47.66 0 0 1 .63 23.69 1.34 1.34 0 0 0 .84 1.79 58.48 58.48 0 0 0 20.57 6.3 101 101 0 0 0 29.72-.36A59.11 59.11 0 0 0 141.2 207c2.43-1.29 2.71-2 2.32-4.71-.7-4.9-1.76-9.79-2-14.71a59.49 59.49 0 0 1 6-28.63c1.31-2.68 2.55-5.41 3.66-8.19a17.57 17.57 0 0 0 .87-4 78.39 78.39 0 0 1 4.27-17.39c1.87-4.87 3.17-9.84 2.1-15.16-.42-2.13-.57-4.31-.82-6.47-.08-.75-.1-1.51-.15-2.32a2 2 0 0 1 2 1.64c.86 2.9 1.68 5.81 2.37 8.76 1.21 5.14-.22 10-1.92 14.77a71.15 71.15 0 0 0-3.85 16.41 31.42 31.42 0 0 1-3.36 10.57c-2.36 4.8-4.71 9.66-5.65 15a112.9 112.9 0 0 0-1.48 12.84 35.82 35.82 0 0 0 .6 6.9c.54 4.09 1.29 8.16 1.69 12.27a5 5 0 0 1-1.26 3.27 11 11 0 0 1-3.34 2.52 64.31 64.31 0 0 1-23.25 7.29 115.73 115.73 0 0 1-23.39.21c-9.2-.81-18.07-3-26.25-7.49-2-1.12-2.48-2-2.08-4.18.81-4.57 1.76-9.14 1.09-13.79-.55-3.85-1.31-7.67-2.16-11.47-1.19-5.31-1.91-10.58-1-16.05.56-3.39.44-6.88.83-10.31s1-7.09 1.56-10.63a2.44 2.44 0 0 0-.09-1.43 16.21 16.21 0 0 1-2-11.55c.88-5 1.9-10 2.9-14.94a5.86 5.86 0 0 1 .78-2c.27-.43.85-.66 1.29-1 .17.5.53 1 .48 1.49l-1.23 10.81c-.28 2.57-.55 5.15-.72 7.73a12 12 0 0 0 4.15 10.2c.78.7 1.25 1.55.67 2.53a1.85 1.85 0 0 1-2.53.6c-.12-.07-.3-.1-.72-.22z"/><path d="M140.53 81.92l-2.13-2.76c-.76-.82-1.41-.84-1.94.22 1.29-.09 1.69.53 1 1.8l-3.66 5.89q-3.49 5.28-7.1 10.48a15.44 15.44 0 0 1-9.48 6.83 1.67 1.67 0 0 0-.9.84c-1 2-2.17 2.66-4.4 2.22-1.33-.26-2.6-.8-3.93-1.08a5.07 5.07 0 0 0-1.84.15c-.73.13-1.57.66-2.17.46a9 9 0 0 1-5.77-4.81c-.09-.2-.23-.46-.17-.65.59-2-1-2.53-2.08-3.56-2.49-2.5-4.87-5.11-7.33-7.63a1.52 1.52 0 0 0-1.23-.43c-3.83 1.07-7.52 2.42-10 5.85-1 1.33-2 2.59-3.06 3.83a12.67 12.67 0 0 1-1.69 1.32 7.51 7.51 0 0 1 .87-5.07c2.52-5.2 6.9-8 12.29-9.51 1-.26 1.67-.49 1.9-1.69a4.08 4.08 0 0 1 1.49-2.2 21.81 21.81 0 0 1 8.57-4.23c2.62-.55 4.11.93 3.65 3.54-.19 1.07-.31 2.15-.48 3.31l2.27 1.54c2.31-1.66 2.78-1.68 5.17 0a3 3 0 0 0 3.25.4 16 16 0 0 1 4.72-.94c2.26-.2 3.7-1.79 5.44-2.85.7-.42 1.28-1 2-1.44a1.9 1.9 0 0 1 1.39-.32c.78.36 1.13-.1 1.63-.49a2.64 2.64 0 0 0 1.13-3.13c-.39-1.38-.47-2.85-.77-4.27a1.19 1.19 0 0 1 .77-1.59 8.79 8.79 0 0 1 9.5 2 18.12 18.12 0 0 0 2.49 2.21c1.79 1.37 2.42 3.38 2.93 5.39a4 4 0 0 0 1.75 2.45 18.11 18.11 0 0 1 4 4.11 46.63 46.63 0 0 1 3.44 6.29c.21.42-.16 1.11-.26 1.68-.47-.25-1.09-.38-1.41-.76a61 61 0 0 1-3.84-4.94 13.66 13.66 0 0 0-7-5.11c-.34-.12-.78-.19-1-.45a2.54 2.54 0 0 1-.68-1.48c0-.41.57-.87 1-1.11a5.28 5.28 0 0 1 1.67-.31zM119 93.09c2.64-1.77 5-4 8.16-5a4.13 4.13 0 0 1-.93 1.7l-8.13 7.84c-1.51 1.43-1.54 1.39-.54 3.36 2.79-1.06 3.78-1.82 6.08-4.8q5.81-7.53 11.61-15.09c.27-.36.52-.74.79-1.11-1.95 1.31-3.67 2.78-5.42 4.22a2.81 2.81 0 0 1-.9.3 3 3 0 0 1 .07-1 6.1 6.1 0 0 1 .83-1.24l4.78-5.84-1.16-.88c-4.14 6.84-10.71 11.31-15.24 17.54zm-9 10.08c.51.19 1 .38 1.44.52 1.73.51 1.75.46 2.42-1.25a2 2 0 0 0-.55-2.55c-.89-.69-1.82-1.33-2.72-2A1.74 1.74 0 0 0 108 98c-1 .88-2.12 1.6-3.4 2.54-.78-2.89 2.58-4.14 1.86-6.66a1.55 1.55 0 0 0-2.14.7c-1 1.73-2 3.45-2.81 5.24s.7 2.26 1.67 3.1 1.72.54 2.48-.2c1.14-1.1 2.21-2.3 3.44-3.29.45-.36 1.28-.24 1.94-.34a5.39 5.39 0 0 1 .2 2 9.22 9.22 0 0 1-1.24 2.08zm-8.62-10c-2.9-2.95-6.14-5.5-6.57-10-.91.44-1.65.77-2.37 1.15-.34.18-.87.47-.89.73-.09 1.71-.7 3.51.72 5l6 6.53a4.1 4.1 0 0 0 .72.48l.34-.24c-.22-.41-.41-.85-.66-1.25-1.18-1.87-2.43-3.7-3.55-5.6a8.74 8.74 0 0 1-.59-2.15l.51-.25 5.53 6.65zm11.51 2.55l.41-.1c-.31-.7-.46-1.64-1-2-.35-.23-1.27.38-2.25.73zM97.75 85.4v-3.6l-1.82.82zm33.61-8.48l1.85-1.71h-2.31z"/><path d="M144.21 135.38a7.52 7.52 0 0 1-.45 1.66c-3.22 6.11-8.07 10.11-15 11.41-1.42.27-2.84.59-4.27.79-.35.06-.76-.23-1.14-.35.22-.36.37-.88.69-1a23.72 23.72 0 0 1 4.48-1.9c5.44-1.31 9.33-4.79 12.87-8.83.66-.76 1.47-1.39 2.2-2.08z"/><path d="M73.38 110.79l-1.51 1.45s-.73-.6-.69-.68a8.76 8.76 0 0 1 1.17-1.56c.447-.475.53.41 1.03.79z"/></g><g><path d="M109.49 88c-2.46-.3-5.37-.11-8-1.6a3.23 3.23 0 0 1-2-2.84 1.33 1.33 0 0 1 .47-.86c.09-.08.62.15.74.36.88 1.49 2.38 1.7 3.85 2 8.92 1.48 16.12-2.18 22.7-7.63 1.43-1.19 2.21-1.41 2.93-.64s.47 1.75-.89 2.86c-5.64 4.65-11.76 8.35-19.8 8.35z"/><path d="M138.36 146.66c-.38.46-.67 1.14-1.16 1.35l-7.28 2.85c-.44.16-1.09-.3-1.64-.48.35-.42.61-1 1.06-1.23l6.79-2.76a6.85 6.85 0 0 1 2-.15z"/><path d="M138.74 150.18c-.41.51-.59.9-.89 1.07a41.33 41.33 0 0 1-4.11 2c-.39.16-1-.23-1.51-.37.25-.43.41-1 .78-1.24 1.67-.81 3.33-1.81 5.73-1.46z"/><path d="M137.76 155l-3.16 1.32c.4-1.81 1.4-2.22 3.16-1.32z"/></g></g><g><path d="M89.13 112.69a12.86 12.86 0 0 0 3.54-.11 52.54 52.54 0 0 1 7.73.38l9.63.37a24.5 24.5 0 0 1 6 .83 6.53 6.53 0 0 1 5.2 7.26 135.26 135.26 0 0 1-5 29.56c-.9 3.06-2.71 4.33-5.87 4.35-5.48 0-10.77-1.35-16.16-2-2.47-.31-4.87-.89-7.3-1.38s-3.55-2.21-4.28-4.31C81.11 143 81 138.3 81.37 133.5c.21-2.75.17-5.53.17-8.29 0-2.18-.12-4.36.09-6.53.37-4.3 3.26-6.22 7.5-5.99z" fill="#1aabe3"/><path d="M107 139.49l.26-8.49.19-4.21a2.31 2.31 0 0 1 2.55-2.19c1.84.13 2.83 1.05 2.75 2.69 0 1-.34 1.88-.42 2.82l-.95 12.61c-.13 2.37-1.14 3.17-3.42 2.43l-6.11-1.72c-.36-.09-.81.15-1.22.23a10.93 10.93 0 0 1-2.67.43l-7.54-.92-1.9-.16c-1.45-.22-2.19-.89-2.09-2.35.3-4.24.75-8.47 1.14-12.71a8.69 8.69 0 0 0 .14-1.89 2.37 2.37 0 0 1 1.78-2.87c1.4-.55 2.44-.18 2.51 1.33a27.26 27.26 0 0 1-.27 4.6l-1.29 9.54h6.63v-9c0-1 0-2 .07-3 .08-1.78.87-2.62 2.33-2.51s2 1 2 2.72-.33 3.53-.34 5.29c0 2.18.14 4.35.29 6.53a1 1 0 0 0 .69.74c1.51.09 3.04.06 4.89.06z" fill="#fff"/><g><path d="M115 112.18c3.85.21 6.48 2.76 7.43 6.48.88 3.43.35 6.81-.21 10.14-1.17 7-2.55 13.91-4 20.83-.54 2.58-1.5 5.13-4.09 6.47a10.81 10.81 0 0 1-6.54.75l-22.21-3.22a5.57 5.57 0 0 1-4.57-4 25.16 25.16 0 0 1-1.2-8.59l-.14-21.37a6.49 6.49 0 0 1 3.82-6c3.06-1.63 6.47-1.63 9.82-1.81 1.72-.1 3.45 0 5.17 0 .01-.09 11.17.01 16.72.32zm-32.58 20.2h.12v12.11a16.17 16.17 0 0 0 .48 3.22 3.72 3.72 0 0 0 3.29 3.15l11.68 1.83c3.9.55 8 1.07 12 1.48 2.31.24 3.45-.51 4.42-2.6a11.3 11.3 0 0 0 1-2.54l4.06-21.21a31 31 0 0 0 .22-8.1 4.87 4.87 0 0 0-5-4.5c-5.34-.24-10.69-.45-16-.42a110.75 110.75 0 0 0-11.79.76c-3.22.36-4.37 1.87-4.41 5.11-.09 3.91-.05 7.81-.05 11.71z"/><path d="M95.25 136.81l.34-3.87.73-9c.07-1.2.66-1.57 1.76-1.48l3.81.2c1 0 1.36.37 1.32 1.38l-.4 11.83c-.08 2.3 0 2.34 2.56 2.17 0-.51.06-1 .09-1.57l.64-11.69c.11-1.77.24-1.87 2-1.75l4.48.39c1 .07 1.5.49 1.41 1.55q-.81 10.17-1.59 20.35c-.1 1.31-.95 1.36-1.93 1.25l-17.3-2.09-6.86-1c-1-.13-1.36-.57-1.31-1.5l.51-10.88.72-7.86a1.2 1.2 0 0 1 1.34-1.22l4.22.1c.88 0 1.11.66 1.08 1.43l-.34 10.88c-.16 2.51-.05 2.65 2.72 2.38zM87 141.4a2.55 2.55 0 0 0 .53.21l21.52 2.24c1 .11 1.36-.12 1.45-1.16l1.42-14.08c.27-2.69.27-2.61-2.44-2.82-1.28-.1-1.49.36-1.52 1.5-.1 3.9-.35 7.8-.51 11.69 0 1.12-.54 1.56-1.62 1.46l-3.26-.28c-1.87-.15-2.07-.33-2-2.25l.57-11.28c.09-1.25-.41-1.52-1.53-1.59s-1.55.13-1.61 1.32c-.16 3.21-.43 6.42-.66 9.64-.27 3.92-.15 3.6-4.1 3.1-3.15-.39-3.15-.52-3-3.71l.68-10.84c-2.22-.79-2.43-.67-2.69 1.48-.22 1.84-.48 3.69-.62 5.54L87 141.4z"/></g></g><g id="E" transform="matrix(1 0 0 1 142.616825 99.676865)"><g transform="translate(-142.617 -99.677)"><g id="F" transform="matrix(1 0 0 1 132.516579 186.349998)"><g transform="translate(-132.517 -186.35)"><path d="M131.84 209.84a6.81 6.81 0 0 1-.63-2.26c.19-1.87.6-3.73.93-5.59.14-.82.58-1.5 1.42-1.18a1.81 1.81 0 0 1 .82 1.52 20.36 20.36 0 0 1-2.1 7.43z"/><path d="M132 181.33c-.39 2.67-.5 2.78-2 2.6-.76.47-1.31 1.07-1.74 1a2.16 2.16 0 0 1-1.46-1.16c-.65-2.07-1.13-4.19-1.6-6.31-.06-.28.29-.94.46-.94a1.46 1.46 0 0 1 1.14.46 30.67 30.67 0 0 1 1.37 3.23 18.27 18.27 0 0 0 .9 2.35c.64-4.42.35-8.9 1.42-13.32 1.18.74 1.27 1 1.3 3.68 0 1.3 0 2.6.12 3.94a58.7 58.7 0 0 1 7.28-14l.65.25a31.22 31.22 0 0 1-.92 3.35l-3.65 8.93a33.63 33.63 0 0 0-1.26 4.3c-.32 1.06-.76 1.78-2.01 1.64z"/><path d="M138 207.55c-.17.26-.31.71-.56.77a1 1 0 0 1-.82-.46l-1.84-4.8c-.26-.75-.13-1.52.78-1.75s1.3.43 1.46 1.2l.98 5.04z"/></g></g><path d="M180.05 151.21c-2.55-2-5.36-3.81-7.61-6.15-1.4-1.45-3.13-1.88-4.65-2.85a43.8 43.8 0 0 1-13-13.19c-1-1.53-1.71-1.78-3.33-1.56a24.64 24.64 0 0 1-3.33 0l-.11-.66 3.9-1.5a7 7 0 0 0-1.42-1.1l-6.63-2.78a7.72 7.72 0 0 1-1.11-.71l.18-.49 6.69 1a9.51 9.51 0 0 0-5.64-3.82 5.14 5.14 0 0 1-4.21-4.21l-1.9-7.18a20.25 20.25 0 0 1 0-4.54l.35-4.7a24 24 0 0 1 3.32-9.5 1.77 1.77 0 0 1 2.75-.47 1.54 1.54 0 0 0 1 .3c4.68-.78 9 .4 13.27 2.19a36.5 36.5 0 0 1 10.63 6.51 56.7 56.7 0 0 1 7.06 7.79 85.49 85.49 0 0 1 4.7 8 5.43 5.43 0 0 0 1.2 1.34c1.43 1.21 3 2.3 4.33 3.59 2.85 2.73 5.67 5.5 8.38 8.38 3.86 4.1 7.84 8.12 11.34 12.51s6.84 9.1 8 14.77a42 42 0 0 1 .68 9 4.06 4.06 0 0 1-1.81 2.8c-1.43.88-3.19 1.21-4.75 1.91a13.63 13.63 0 0 0-3.18 1.85c-1.83 1.56-3.48 3.34-5.29 4.93a40.58 40.58 0 0 1-11.15 7.33c-3.4 1.42-6.89 2.61-10.33 3.94-4.72 1.84-9.36 3.88-14.14 5.54-3.05 1.05-6.29 1.55-9.42 2.35a2.07 2.07 0 0 0-.95.77c-2.14 2.85-4.15 5.82-6.46 8.52a8 8 0 0 1-3.8 2.32 60.51 60.51 0 0 1-9.11 1.93 5.93 5.93 0 0 1-6.1-2.5c-.07-.11-.23-.22-.23-.32.07-2-1.25-3.14-2.5-4.43a2.84 2.84 0 0 1-.73-2.42c.67-1.64 0-2.68-1-3.81-.33-.39-.77-1-.7-1.37.39-2.3.52-4.8 1.57-6.79.62-1.17 2.78-1.53 4.26-2.24h.27c2.28-.35 2.17-.38 2.84-2.6.77-2.52 1.8-4.91 4.86-5.45 1.86-.32 3.25.62 4.62 1.64.83.6 1.65 1.22 2.5 1.78 2.34 1.51 4.42.22 6.49-.7s3.91-1.87 5.85-2.85c3.14-1.59 6.45-3 8.87-5.63 1.8-2 3.3-4.21 4.92-6.35a64.63 64.63 0 0 1 9.76-10.12z" fill="#fff"/><path d="M190.67 147.83c2.71.44 5.11.29 7.19 1.51v.45a8.05 8.05 0 0 1-1.65.29 23.77 23.77 0 0 0-11.1 2.17c-3.62 1.69-6.24 4.53-8.78 7.4s-4.76 5.84-7 8.86a21.76 21.76 0 0 1-7.42 5.85c-.43.24-.88.47-1.32.7-2.21 1.14-2.41 1.67-1.52 4a9.4 9.4 0 0 0 5.84 5.71 2.63 2.63 0 0 0 1.68-.11l21.23-8.45c4-1.63 7.32-4.35 10.55-7.15 1.37-1.19 2.75-2.38 4-3.64a12.55 12.55 0 0 1 5.2-2.83c4.42-1.38 4.27-1.69 3.76-6.49-.54-5.23-3.22-9.65-6.13-13.92-3.6-5.29-8.22-9.69-12.51-14.37L182.56 117c-1.58 1.21-2.41 1-3.34-.75-1.26-2.41-2.37-4.9-3.77-7.23-5.2-8.64-12.47-14.9-22.15-17.89-3.55-1.1-7.41-1.19-11.12-1.79-.4-.06-.74-.46-1.11-.7a5.79 5.79 0 0 1 .81-1.13 1.85 1.85 0 0 1 1-.37 59.31 59.31 0 0 1 6.09-.41c4.55.09 8.68 1.73 12.65 3.82a42.65 42.65 0 0 1 19.37 20.83 3.07 3.07 0 0 0 .63 1c3 2.74 6.21 5.3 9 8.21 5.26 5.38 10.52 10.79 15.41 16.52 3.83 4.48 7.1 9.49 8.36 15.41a44.08 44.08 0 0 1 .71 8c.07 2.86-3 4.92-5.58 5.27a7.93 7.93 0 0 0-4.67 2.46c-3.86 3.71-7.76 7.42-12.52 10a71.22 71.22 0 0 1-7.59 3.33l-20.27 7.91c-3.09 1.12-6.39 1.64-9.59 2.48a1.9 1.9 0 0 0-1 .74l-5.48 7.63c-1.5 2.08-3.73 2.92-6.07 3.63a27.56 27.56 0 0 1-9.9 1.47 5 5 0 0 1-4.91-4.54 2 2 0 0 0-.72-1.18c-1.82-1.35-2.73-3-2-5.3a1.92 1.92 0 0 0-.52-1.53 4.82 4.82 0 0 1-1.14-5.16 4.56 4.56 0 0 0 .13-.53c.76-4 2.2-5.46 6.25-6.05 1.29-.19 2.1-.38 2.34-2a9.8 9.8 0 0 1 2-4.21c1.7-2.26 4.73-2.32 7.29-.39 1 .74 2 1.42 3 2.15a3.45 3.45 0 0 0 3.74.29c4.84-2.37 9.7-4.71 14.43-7.29a13 13 0 0 0 3.85-3.57 94.87 94.87 0 0 1 10.95-12.8c.83-.77 1.7-1.49 2.63-2.3a32.6 32.6 0 0 1-8.75-7.13 1.5 1.5 0 0 0-.56-.36c-5.36-2-9.23-6-12.77-10.28-1.32-1.61-2.42-3.4-3.73-5a2.3 2.3 0 0 0-1.62-.54c-1.47 0-3 .41-4.66-.79l3.79-1.65.09-.36-8.87-4 .22-.71 6.28.7a11.69 11.69 0 0 0-5.67-3.55 8.39 8.39 0 0 1-2-1.33 7 7 0 0 1 2.29-.58c4.6.41 7.84 2.91 10.27 6.74a98.06 98.06 0 0 0 6.06 8.85 31.7 31.7 0 0 0 13 10.18 6 6 0 0 1 2.17 1.36c2.22 2.44 5.16 3.79 7.91 5.44a2.12 2.12 0 0 0 2.61-.13 14.46 14.46 0 0 1 7.57-2.75 3.88 3.88 0 0 1 1.39.47 7.2 7.2 0 0 1-1.08.85c-.83.45-1.69.81-3.02 1.37zm-52.33 30.34a6 6 0 0 1-3.76 4.5c-1.8.84-3.71 1.43-5.58 2.12a4 4 0 0 0-1.66 6.08c1 1.16 1.58 2.36 1 3.85a2 2 0 0 0 .78 2.58 4.48 4.48 0 0 1 1.39 1.91c.58 1.94 1.1 2.69 3.07 2.55a52.32 52.32 0 0 0 7.75-1.24 7.55 7.55 0 0 0 3.74-1.74c2.36-2.49 4.41-5.26 6.65-8-2.72-2.78-5-5.65-5.31-9.15-1.47-.7-2.68-1.17-3.78-1.82a32.48 32.48 0 0 1-2.94-2.19c-2.08-1.59-3.55-1.05-4.29 1.67zm17.43-.82c-1.44.6-2.77 1.27-4.18 1.72a2 2 0 0 0-1.45 2.5c.35 2.58 2 4.43 3.63 6.24a.94.94 0 0 0 .76.15l7.3-1.52c-3.42-2.33-5.51-5.12-6.06-9.09z"/><g><path d="M151.43 187.16l1.89-.74 7.27-2.11c.31-.09.7.11 1.06.18-.21.35-.34.9-.63 1l-4.79 1.41a2.6 2.6 0 0 0-1.33.67l6.18-1.32a5.25 5.25 0 0 1 .52-.17c.65-.09 1.57-.78 1.85.28s-.8 1-1.47 1.11l-7.88 1.34c-1.43.3-1.87-.65-2.67-1.65z"/><path d="M191.45 143.45a9.47 9.47 0 0 1-1.19 1l-4.85 2.44c-.38.17-1-.1-1.45-.17.12-.47.08-1.25.36-1.38l5.58-2.32c.32-.13.82.21 1.55.43z"/><path d="M150.72 185.69l1.6-.69q3.1-1.06 6.24-2.09a2.37 2.37 0 0 1 .86.08c-.1.32-.12.83-.31.92a30.92 30.92 0 0 1-8.24 2.25z"/><path d="M187.18 141.41a6.86 6.86 0 0 1-3.34 3.29 1.22 1.22 0 0 1-1.12-.32 1.48 1.48 0 0 1 .2-1.32 5.57 5.57 0 0 1 4.26-1.65z"/><path d="M183.62 140c0 1.39-1.71 3.16-2.82 2.93-.21 0-.53-.76-.42-.92a3.86 3.86 0 0 1 3.24-2.01z"/><path d="M156.8 182.2l-2.1.93a8.23 8.23 0 0 1-1.52.51c-.61.13-1.23.17-1.85.25a7.56 7.56 0 0 1 1.63-1.24 37.9 37.9 0 0 1 3.63-1.09z"/><path d="M129.46 197.82l3.43 1.2c-1 1.34-2 .64-2.81.24-.4-.19-.65-.71-1-1.08z"/><path d="M181.18 139l-1.75 2.07a.72.72 0 0 1-.68 0 .77.77 0 0 1-.09-.71 2.06 2.06 0 0 1 2.52-1.36z"/><path d="M155.4 180.18a4.64 4.64 0 0 1-3.39 1.51l-.22-.48 3.38-1.53z"/><path d="M135.21 199c-1.3.91-1.77.31-2.17-.29-.1-.16.11-.53.18-.8z"/></g></g></g><g id="G" transform="matrix(1 0 0 1 110.891915 75.720123)"><g transform="translate(-110.892 -74.72)"><path d="M84.27 28.52c-3 1.57-6.37 2.8-7.31 7a7.44 7.44 0 0 1 .91-7.18 15 15 0 0 1 2.69-2.78c.45-.41.65-.69.32-1.31a8.17 8.17 0 0 1 2.86-11.15 2.52 2.52 0 0 0 1-1.28c1.53-5.06 5.1-5.95 8.6-6.37.76-.09 1.58.51 2.4.67a2.77 2.77 0 0 0 1.71 0 8.66 8.66 0 0 1 8.76.13 2.46 2.46 0 0 0 1.5.06c1.7-.35 3.36-.91 5.07-1.14 5.06-.69 11.15 3 13.13 7.69a2.92 2.92 0 0 0 1.35 1.38c8.31 3.66 12.9 10.16 14.74 18.87a37.32 37.32 0 0 1 .74 10.47 30 30 0 0 1-5.45 16.09 45 45 0 0 1-3.29 3.72 1.38 1.38 0 0 1-.68.41c-3.43.6-3 3.68-3.45 5.9-.29 1.32-.5 1.89-1.83 2.25a42.49 42.49 0 0 0-4.47 1.9 46.69 46.69 0 0 1-11 3c-2.81.38-5.58 1.07-8.35 1.72a56.16 56.16 0 0 1-5.71 1.55c-3.53.47-7.18.87-9.83-2.37-1.78-2.17-3.58-4.34-5.15-6.67-2.09-3.1-1.28-6.69-1.38-10.12a4.91 4.91 0 0 0-.45-2.61c-1.92-2.62-.81-4.92.41-7.3a3.92 3.92 0 0 0 .25-1.58v-2.6a9.22 9.22 0 0 0-.13-2.69 34.29 34.29 0 0 0-1.8-4 4.19 4.19 0 0 1 .05-4.18l4.11-7.26z" fill="#fff"/><g><path d="M127.28 72.35c-.89-2.54-.29-4.8.37-7.09l1.37-5.53a7.59 7.59 0 0 0 0-1.44l-3.47.64.48 1a2.88 2.88 0 0 1-.93.31 3.42 3.42 0 0 1-1.18-.39c-.06 0 .08-.46.13-.7a3.22 3.22 0 0 0 .19-1c-.14-1 .48-1.24 1.18-1.56l4.43-2.06A5.83 5.83 0 0 0 133 51l1.63-5c.25-.84.67-1.73-.33-2.46a3.36 3.36 0 0 0-3.43-.64 6.91 6.91 0 0 0-1.78 1.23l-2.25 2.17a6.2 6.2 0 0 1-1.7.66l-.3-.44-2.33 4.11a2 2 0 0 1-2.66 1.18c-4.28-1.53-4-1.53-2.92-5.1l2-5.93a5.74 5.74 0 0 0-2.48-7.09 2.33 2.33 0 0 1-1.16-2.69 36.57 36.57 0 0 0 .59-4 2 2 0 0 0-.52-1.38 12.71 12.71 0 0 0-7.26-3.72 46.25 46.25 0 0 0-13.54-.8c-.48 0-1 .14-1.48.21l.22 1.3a5.37 5.37 0 0 1-6 6.37 8.73 8.73 0 0 0-6.26 1.41 7.91 7.91 0 0 0-3.86 5c0 .07-.12.13-.18.2-1.88-2.58-.49-6.43 3.87-10.74-2.54-4.6-1.49-8.94 2.86-12a2.67 2.67 0 0 0 .87-1.27 9 9 0 0 1 9.28-6.27c.27 0 .62 0 .8.11 1.43 1.11 2.77.48 4.16-.1a7.91 7.91 0 0 1 7 .5 2.64 2.64 0 0 0 2.29.16c4.84-1.61 9.47-1.3 13.8 1.59a11.51 11.51 0 0 1 4.11 5 3 3 0 0 0 1.24 1.43c9.07 4 13.74 11.2 15.25 20.71a35.82 35.82 0 0 1-2.17 20 25.59 25.59 0 0 1-6.09 8.6 2.94 2.94 0 0 1-1.49.9c-1.19.1-1.62.77-1.81 1.79l-.95 4.76a1.32 1.32 0 0 1-.63.84 15.8 15.8 0 0 1-2.11.75zM127 42.42c.71-.56 1.38-1.17 2.12-1.67a5.74 5.74 0 0 1 6.53.07c2.22 1.58 2.63 2.85 1.86 5.78-.06.22-.1.44-.16.66-1 3.39-1.64 6.94-4.88 9.12a.72.72 0 0 0-.26.57c.08.86.21 1.72.32 2.58l.45.18a59.67 59.67 0 0 0 3.77-6.05c2.77-5.85 3.09-12.07 2.17-18.38A23.77 23.77 0 0 0 126.32 17a8.69 8.69 0 0 1-3.19-3.21 11.37 11.37 0 0 0-14.67-4.58 2.67 2.67 0 0 1-3.11-.31 5.78 5.78 0 0 0-6.26-.9 7.48 7.48 0 0 1-4.73.46c-3.64-.61-6.08 1.17-7 4.76a2.62 2.62 0 0 1-1.2 1.64c-4.41 1.62-4.33 6.1-2.66 9.05.74 1.32.62 1.78-.61 2.73-.9.69-1.76 1.44-2.64 2.17l.21.31a15.89 15.89 0 0 1 7.19-2.31c2.75-.14 3.92-3.17 2.57-5.61a1.29 1.29 0 0 1 .78-2.12 13.15 13.15 0 0 1 2.64-.61 45.31 45.31 0 0 1 12.74.06c4.31.53 8.31 1.83 11.4 5.17a3.11 3.11 0 0 1 1 3.17 25.83 25.83 0 0 0-.62 3.62 1.53 1.53 0 0 0 .46 1.12c3.29 2.89 4 5.62 2.58 9.72-.84 2.42-1.58 4.89-2.41 7.45l1.28.36 4.21-6.5c.89-1.39 1.61-1.39 2.72-.22z"/><path d="M84.67 42.58l2.57-3.69a4 4 0 0 1 .72-1 1.36 1.36 0 0 1 1.04-.25 1.15 1.15 0 0 1 .32 1 14 14 0 0 1-1 2.82l-2.93 5.53a1.58 1.58 0 0 0 .65 2.48c1 .55 2.37 1.06 1.54 2.48-.74 1.26-2 .62-3 .18l-.5-.17c-.57 1.49-1.16 2.86.08 4.39a6.94 6.94 0 0 1 1.48 4.84l-.09 3.68a6.91 6.91 0 0 0 1.26 4.9A65.7 65.7 0 0 0 92 75.9c1.46 1.49 3.47 1.18 5.29.74l17.24-4.31a6.16 6.16 0 0 1 1.87-.31 7.15 7.15 0 0 1 1.78.59c-.31.49-.51 1.25-1 1.44l-6.58 2.49c-2.89.92-6 1.32-8.7 2.6a15.63 15.63 0 0 1-9.37 1.11A6.41 6.41 0 0 1 89 78.47 79.78 79.78 0 0 1 83.18 71a8.67 8.67 0 0 1-1.34-5.6l.13-3a7.91 7.91 0 0 0-1.1-5.19c-1.22-2-.13-3.88.72-5.67a2.83 2.83 0 0 0 .41-2.47 3.09 3.09 0 0 1 .19-2.23 3 3 0 0 0-.21-3 23.83 23.83 0 0 1-1.85-4.22 5.13 5.13 0 0 1 .23-3.38 63.67 63.67 0 0 1 4.14-6.2 2.37 2.37 0 0 1 1.07-.8 1.3 1.3 0 0 1 1.08.1 1.08 1.08 0 0 1 .27 1 25.65 25.65 0 0 1-2.58 4.9A4.63 4.63 0 0 0 84 41l.67 1.58z"/><path d="M129.91 49.29l.74-2.49-3.72 2.2a8.66 8.66 0 0 1-1.3.71.89.89 0 0 1-.81-.11.84.84 0 0 1 .06-.81 16.17 16.17 0 0 1 8.43-4.9c.39-.07.88.4 1.32.62-.3.39-.54 1-.91 1.12-1.08.24-1.29.83-1.3 1.82a14.75 14.75 0 0 1-.5 2.67c-.36 1.73-.74 1.92-2.4 1.23a7.45 7.45 0 0 0-.87-.2c0 .66.2 1.33 0 1.76a5.69 5.69 0 0 1-1.87 2.27c-1 .53-1.85-.27-2.55-1.06a2.15 2.15 0 0 1-.18-2.64c.08-.16.2-.39.33-.42 1.88-.42 3.12-2.82 5.53-1.77z"/><path d="M104.67 55.05c-3.59 3.57-7.73 6.05-13 6.25a6.73 6.73 0 0 1-2.11-.36.9.9 0 0 1-.46-.71c0-.22.33-.52.57-.6a12.07 12.07 0 0 1 2-.49A21.05 21.05 0 0 0 103 53.61a7.21 7.21 0 0 1 .75-.59c.6-.42 1.3-1.28 2-.5a4.32 4.32 0 0 1 .57 2.37c0 .28-.43.6-.67.9z"/><path d="M96.81 49.5a3.85 3.85 0 0 1-3.15 3.44 1.11 1.11 0 0 1-.91-.33c-.13-.22 0-.68.18-1a5.49 5.49 0 0 1 .75-.78 2.31 2.31 0 0 0-.05-3.3c-.21-.23-.54-.38-.69-.64a6.46 6.46 0 0 1-.44-1.16 3.57 3.57 0 0 1 1.35-.27 4.57 4.57 0 0 1 2.96 4.04z"/><path d="M96.71 63.27a3 3 0 0 1-1.06-.11c-.31-.16-.5-.54-.75-.82.28-.18.54-.47.83-.51 2.67-.36 5.11-1.12 6.86-3.38.22-.28.87-.23 1.32-.33 0 .47.28 1.11.06 1.36a10.3 10.3 0 0 1-2.72 2.52 26.48 26.48 0 0 1-4.46 1.47z"/><path d="M89.28 51.31L88 49.91c.48-.39 1-1.1 1.42-1.09a9.49 9.49 0 0 1 2.78.71c.2.07.35.49.38.76 0 .09-.39.28-.63.35l-2.67.67z"/><path d="M119.37 70.8c.43.53.9.86.87 1.14a1.14 1.14 0 0 1-.83.76c-.32 0-.66-.41-1-.64z"/></g><g><path d="M132.33 60.15l-.38-3.25a.84.84 0 0 1 .28-.69c2.24-1.05 3.09-3.15 3.81-5.24a29.47 29.47 0 0 0 1.53-6.17c.28-2.49-1.95-4.62-4.5-4.82a6 6 0 0 0-5.18 2l-.92 1.06c-1-1.71-1.53-1.77-2.56-.29A55.37 55.37 0 0 0 121 48c-.65 1.22-1.27 1.59-2.52.72l2.74-8.28c.9-3.07.35-6-2.14-8.07-1.47-1.19-1.17-2.34-1-3.67.07-.61.38-1.2.44-1.81a3.4 3.4 0 0 0-.9-3c-3.14-3.33-7.05-4.74-11.45-5.1-2.86-.24-5.74-.53-8.61-.51a38.2 38.2 0 0 0-6.08.79 1.32 1.32 0 0 0-1 2.11 3.49 3.49 0 0 1-.23 4.14A4.29 4.29 0 0 1 85.81 27c-.87-.17-1.94.44-2.87.83s-1.92 1-2.88 1.55l-.29-.38c1-.87 1.92-1.8 3-2.6 1.29-1 1.38-1.35.62-2.71a9 9 0 0 1-.94-2.57l1 .79c.17-.41.29-.68.4-1l1.51-3.71c.31-.71.87-1.38-.39-2.09 1.93-.54 2.25-2 2.59-3.58.42-2 2.88-3.46 5.49-3.49a29.17 29.17 0 0 1 2.95.34l1.48.13a11 11 0 0 0 .52 1.68c0 .1.7.05.94-.12A2.19 2.19 0 0 0 100 7.4a6.74 6.74 0 0 1 5.64 1.37 2.15 2.15 0 0 0 2.55.29c4.64-2.18 8.94-1.41 12.82 1.73 1 .78 1.5 2.09 2.34 3.07a12 12 0 0 0 2.78 2.74 25.93 25.93 0 0 1 9.48 8.71 21.94 21.94 0 0 1 3.39 9.33 52.3 52.3 0 0 1 .51 8.46c-.42 6.41-2.19 12.35-7.18 17.05zm-28.6-50.52c-.6-.39-1-.79-1.15-.71a5.13 5.13 0 0 0-1.08 1c.26.25.58.76.76.71a6.2 6.2 0 0 0 1.47-1z"/><path d="M92.09 35.81A14.89 14.89 0 0 1 94 34.47l8.23-3.79a5.06 5.06 0 0 1 3.17 0 65.16 65.16 0 0 1 6.29 2.48A5.86 5.86 0 0 1 113 34.3l-.15.5-6.91-1c-2.3-.31-4.67.29-6.94.92a57.88 57.88 0 0 1-6.73 1.76z"/><path d="M101.06 81.14c-.79-.53-2.14-1-2.25-1.63-.23-1.4 1.19-1.42 2.19-1.51a54.51 54.51 0 0 0 14.8-3.23c.44-.16 1 .11 1.56.18-.28.46-.46 1.1-.87 1.34-4.67 2.8-9.83 4.04-15.43 4.85z"/><path d="M102.67 83.62c-.41 0-.8 0-1-.13a7.65 7.65 0 0 1-1.07-1.06c.37-.35.69-.92 1.11-1 1.5-.31 3.07-.34 4.56-.69l7.45-2a5 5 0 0 1 1.23 0c-.19.41-.28 1-.59 1.21a18.2 18.2 0 0 1-7.75 3.05c-1.33.3-2.69.43-3.94.62z"/><path d="M112 83.18c-.33.54-.38.73-.51.82a15.77 15.77 0 0 1-8.14 2.62c-.32 0-1-.58-.94-.72.14-.45.47-1.07.85-1.17 1.39-.38 2.83-.6 4.25-.85l4.49-.7z"/><path d="M103.73 89.53a2.06 2.06 0 0 1-.79-.15 5.47 5.47 0 0 1-.91-.83c.28-.26.52-.71.84-.77l6.68-1.12c.33 0 .71.27 1.06.42-.19.38-.28 1-.57 1.1a18.15 18.15 0 0 1-3.2 1 28.31 28.31 0 0 1-3.11.35z"/><path d="M88 37.21l-5.84 1.09a1.62 1.62 0 0 1-1.2-.63c-.16-.21-.05-1 .12-1.06a14.08 14.08 0 0 1 4.1-1.38A3.17 3.17 0 0 1 88 37.21z"/></g><g id="H"><path d="M103.14 39.62c0 .76 0 1.54-.14 2.29a1.74 1.74 0 0 1-1.73 1.61 1.54 1.54 0 0 1-1.78-1.47 30.32 30.32 0 0 1 .23-4.67c.14-1.15 1.09-1.3 2.06-1.24s1.28.85 1.32 1.72v1.76z"/><path d="M86.71 40.94c0 .47.14.94 0 1.17-.39.54-.87 1.22-1.43 1.36-.83.2-1.31-.49-1.34-1.32a9.16 9.16 0 0 1 .06-2.57c.12-.47.81-1.17 1.16-1.13a2.34 2.34 0 0 1 1.36 1.14c.27.41.16.96.19 1.35z"/></g><g id="I" opacity="0"><path d="M100.21 40.39l1.75.78v.36a4 4 0 0 1-1.16.34 17.34 17.34 0 0 1-3-.25c-.46-.1-.86-.56-1.28-.85.27-.38.45-.92.82-1.12 2.86-1.53 5.86-2.18 9-.92.52.21.81 1 1.21 1.5-.59.17-1.23.57-1.76.46-1.86-.4-3.69-.95-5.58-.3z"/><path d="M85.33 41.15l-2.17.35a3.19 3.19 0 0 1-1.06-.34c.19-.32.32-.85.59-.93a16.87 16.87 0 0 1 3.57-.78c.4 0 .86.71 1.29 1.1l-1.45.63a3.79 3.79 0 0 1-.77-.03z"/></g></g></g></g></g></g></svg>